<svg width="334" height="133" viewBox="0 0 334 133" fill="none" xmlns="http://www.w3.org/2000/svg">
<path d="M38.2203 88.4929H57.4345C54.8659 95.0905 48.5977 99.1273 39.0417 99.1273C25.0702 99.1273 16.4389 90.5614 16.4389 78.8415C16.4389 66.7279 25.4809 58.1605 37.6039 58.1605C45.7201 58.1605 52.1928 61.7051 55.1737 66.2357L69.1463 58.5541C63.0848 49.2964 51.4737 42.7969 37.7067 42.7969C16.5428 42.7969 0 58.7492 0 78.7414C0 98.5366 16.2333 114.49 38.8355 114.49C58.974 114.49 74.2815 101.689 74.2815 80.6128V74.7046H38.2203V88.4929Z" fill="white"/>
<path d="M37.7067 43.2969C51.0941 43.2969 62.3872 49.5121 68.4278 58.3786L55.3306 65.5789C52.1366 61.069 45.6284 57.6605 37.6039 57.6605C25.2201 57.6605 15.9389 66.4367 15.9389 78.8415C15.9389 84.8294 18.1468 90.038 22.1617 93.7466C26.1741 97.453 31.9535 99.6273 39.0417 99.6273C48.7505 99.6273 55.2394 95.5092 57.9004 88.6743L58.1657 87.9929H57.4345H38.7203V75.2046H73.7815V80.6128C73.7815 91.0227 70.0049 99.3546 63.772 105.087C57.5341 110.824 48.7999 113.99 38.8355 113.99C16.4793 113.99 0.5 98.2312 0.5 78.7414C0.5 59.046 16.7978 43.2969 37.7067 43.2969Z" stroke="black" stroke-opacity="0.63"/>
<path d="M199.379 62.4932C192.085 62.4932 187.358 65.0538 184.481 68.9937C181.606 64.8568 177.083 62.4932 171.024 62.4932C164.139 62.4932 159.62 65.0538 157.256 68.4019V63.8728H141.844V113.113H157.256V85.3427C157.256 79.531 160.133 76.0849 165.27 76.0849C170.202 76.0849 172.667 79.2364 172.667 84.1591V113.113H188.078V85.3427C188.078 79.531 190.955 76.0849 196.093 76.0849C201.024 76.0849 203.489 79.2364 203.489 84.1591V113.113H218.9V82.8791C218.9 70.5684 211.192 62.4932 199.379 62.4932Z" fill="white"/>
<path d="M184.07 69.279L184.471 69.8553L184.885 69.2885C187.651 65.4994 192.215 62.9932 199.379 62.9932C205.168 62.9932 209.911 64.9688 213.208 68.4153C216.507 71.8639 218.4 76.8286 218.4 82.8791V112.613H203.989V84.1591C203.989 81.6208 203.353 79.4691 202.016 77.946C200.669 76.4127 198.67 75.5849 196.093 75.5849C193.405 75.5849 191.252 76.491 189.779 78.209C188.316 79.9158 187.578 82.3608 187.578 85.3427V112.613H173.167V84.1591C173.167 81.6208 172.532 79.4691 171.194 77.946C169.847 76.4127 167.848 75.5849 165.27 75.5849C162.583 75.5849 160.43 76.491 158.957 78.209C157.494 79.9158 156.756 82.3608 156.756 85.3427V112.613H142.344V64.3728H156.756V68.4019V69.9771L157.665 68.6902C159.916 65.5009 164.267 62.9932 171.024 62.9932C176.938 62.9932 181.299 65.2909 184.07 69.279Z" stroke="black" stroke-opacity="0.63"/>
<path d="M242.462 63.873H227.051V113.114H242.462V63.873Z" fill="white"/>
<path d="M227.551 112.614V64.373H241.962V112.614H227.551Z" stroke="black" stroke-opacity="0.63"/>
<path d="M254.358 63.8721H247.475V78.0526H254.358V113.113H269.769V78.0526H279.325V63.8721H269.769C269.769 58.1605 273.57 56.4857 279.325 56.9779V42.7959C262.269 41.8114 254.358 50.0832 254.358 63.8721Z" fill="white"/>
<path d="M254.358 64.3721H254.858V63.8721C254.858 57.0704 256.807 51.7119 260.778 48.167C264.68 44.6842 270.619 42.8756 278.825 43.2701V56.4393C276.14 56.2698 273.815 56.5896 272.119 57.6777C270.269 58.8648 269.269 60.8958 269.269 63.8721V64.3721H269.769H278.825V77.5526H269.769H269.269V78.0526V112.613H254.858V78.0526V77.5526H254.358H247.975V64.3721H254.358Z" stroke="black" stroke-opacity="0.63"/>
<path d="M317.561 63.873L307.903 94.0089L296.5 63.873H279.547L299.993 110.849C297.733 116.857 294.343 119.022 287.15 119.022V132.811C301.534 133.501 310.678 127.297 316.432 111.638L334 63.8745L317.561 63.873Z" fill="white"/>
<path d="M333.283 64.3745L315.963 111.465L315.963 111.465C313.107 119.238 309.431 124.604 304.737 127.948C300.154 131.213 294.545 132.591 287.65 132.332V119.519C291.042 119.47 293.644 118.913 295.69 117.61C297.843 116.239 299.309 114.086 300.461 111.025L300.532 110.835L300.451 110.649L280.31 64.373H296.155L307.435 94.1859L307.942 95.5252L308.379 94.1615L317.926 64.3731L333.283 64.3745Z" stroke="black" stroke-opacity="0.63"/>
<path d="M234.756 57.8516C239.562 57.8516 243.458 54.1171 243.458 49.5103C243.458 44.9035 239.562 41.1689 234.756 41.1689C229.95 41.1689 226.054 44.9035 226.054 49.5103C226.054 54.1171 229.95 57.8516 234.756 57.8516Z" fill="white"/>
<path d="M242.958 49.5103C242.958 53.8212 239.306 57.3516 234.756 57.3516C230.206 57.3516 226.554 53.8212 226.554 49.5103C226.554 45.1994 230.206 41.6689 234.756 41.6689C239.306 41.6689 242.958 45.1994 242.958 49.5103Z" stroke="black" stroke-opacity="0.63"/>
<path d="M213.281 37.2667C218.087 37.2667 221.983 33.5321 221.983 28.9253C221.983 24.3185 218.087 20.584 213.281 20.584C208.475 20.584 204.579 24.3185 204.579 28.9253C204.579 33.5321 208.475 37.2667 213.281 37.2667Z" fill="white"/>
<path d="M221.483 28.9253C221.483 33.2362 217.831 36.7667 213.281 36.7667C208.731 36.7667 205.079 33.2362 205.079 28.9253C205.079 24.6144 208.731 21.084 213.281 21.084C217.831 21.084 221.483 24.6144 221.483 28.9253Z" stroke="black" stroke-opacity="0.63"/>
<path d="M234.756 16.6827C239.562 16.6827 243.458 12.9481 243.458 8.34134C243.458 3.73454 239.562 0 234.756 0C229.95 0 226.054 3.73454 226.054 8.34134C226.054 12.9481 229.95 16.6827 234.756 16.6827Z" fill="white"/>
<path d="M242.958 8.34134C242.958 12.6522 239.306 16.1827 234.756 16.1827C230.206 16.1827 226.554 12.6522 226.554 8.34134C226.554 4.03044 230.206 0.5 234.756 0.5C239.306 0.5 242.958 4.03044 242.958 8.34134Z" stroke="black" stroke-opacity="0.63"/>
<path d="M256.231 37.2667C261.037 37.2667 264.933 33.5321 264.933 28.9253C264.933 24.3185 261.037 20.584 256.231 20.584C251.425 20.584 247.529 24.3185 247.529 28.9253C247.529 33.5321 251.425 37.2667 256.231 37.2667Z" fill="white"/>
<path d="M264.433 28.9253C264.433 33.2362 260.781 36.7667 256.231 36.7667C251.681 36.7667 248.029 33.2362 248.029 28.9253C248.029 24.6144 251.681 21.084 256.231 21.084C260.781 21.084 264.433 24.6144 264.433 28.9253Z" stroke="black" stroke-opacity="0.63"/>
<path d="M117.746 63.8723V68.5014C114.353 64.7582 109.321 62.4932 102.438 62.4932C88.9769 62.4932 77.8813 73.8179 77.8813 88.4936C77.8813 103.169 88.9769 114.492 102.438 114.492C109.321 114.492 114.355 112.228 117.746 108.485V113.113H133.157V63.8723H117.746ZM123.022 90.1964C123.022 90.6387 122.931 91.0766 122.755 91.4852C122.578 91.8938 122.32 92.2651 121.993 92.5778C121.667 92.8905 121.28 93.1386 120.853 93.3078C120.427 93.477 119.97 93.564 119.509 93.564H114.325C113.393 93.5641 112.499 93.9189 111.841 94.5505C111.182 95.182 110.812 96.0384 110.811 96.9315V101.902C110.811 102.795 110.441 103.652 109.782 104.283C109.123 104.915 108.23 105.27 107.298 105.27H103.743C102.811 105.27 101.917 104.915 101.259 104.283C100.6 103.652 100.23 102.795 100.229 101.902V96.9315C100.229 96.0385 99.8588 95.1822 99.2 94.5507C98.5413 93.9193 97.6479 93.5644 96.7162 93.564H91.5299C91.0685 93.564 90.6116 93.477 90.1853 93.3078C89.759 93.1386 89.3718 92.8905 89.0455 92.5778C88.7193 92.2651 88.4605 91.8938 88.2839 91.4852C88.1074 91.0766 88.0165 90.6387 88.0166 90.1964V86.7879C88.0165 86.3456 88.1074 85.9077 88.2839 85.4991C88.4605 85.0905 88.7193 84.7192 89.0455 84.4065C89.3718 84.0938 89.759 83.8457 90.1853 83.6765C90.6116 83.5073 91.0685 83.4202 91.5299 83.4203H96.7162C97.648 83.4202 98.5414 83.0653 99.2003 82.4338C99.8591 81.8023 100.229 80.9458 100.229 80.0528V75.0835C100.229 74.1902 100.599 73.3334 101.258 72.7016C101.917 72.0698 102.811 71.7147 103.743 71.7144H107.298C107.76 71.7145 108.217 71.8017 108.643 71.971C109.069 72.1404 109.457 72.3886 109.783 72.7014C110.109 73.0143 110.368 73.3857 110.544 73.7944C110.721 74.2031 110.812 74.6411 110.811 75.0835V80.0528C110.811 80.495 110.902 80.9329 111.079 81.3415C111.255 81.7501 111.514 82.1214 111.84 82.4341C112.167 82.7468 112.554 82.9949 112.98 83.1641C113.406 83.3333 113.863 83.4204 114.325 83.4203H119.509C119.97 83.4202 120.427 83.5073 120.853 83.6765C121.28 83.8457 121.667 84.0938 121.993 84.4065C122.32 84.7192 122.578 85.0905 122.755 85.4991C122.931 85.9077 123.022 86.3456 123.022 86.7879V90.1964Z" fill="white"/>
<path d="M111.311 101.902V101.902C111.311 102.935 110.883 103.921 110.128 104.644C109.374 105.367 108.356 105.77 107.298 105.77H107.298H103.743H103.743C102.685 105.77 101.667 105.367 100.913 104.644C100.158 103.921 99.7297 102.935 99.7295 101.902V101.902V96.9318C99.7295 96.9317 99.7295 96.9316 99.7295 96.9315C99.7291 96.1781 99.4168 95.4512 98.854 94.9117C98.2905 94.3715 97.5219 94.0644 96.7162 94.064L111.311 101.902ZM111.311 101.902V96.9316C111.311 96.9316 111.311 96.9316 111.311 96.9315C111.312 96.178 111.624 95.4509 112.187 94.9114C112.75 94.3712 113.519 94.0641 114.325 94.064C114.325 94.064 114.325 94.064 114.325 94.064M111.311 101.902L114.325 94.064M103.743 71.2144H103.743H107.298H107.298C107.823 71.2145 108.342 71.3135 108.828 71.5063C109.313 71.6992 109.755 71.9823 110.129 72.3405C110.502 72.6988 110.8 73.1253 111.003 73.5962L110.544 73.7944L111.003 73.5962C111.207 74.067 111.312 74.5725 111.311 75.0835C111.311 75.0835 111.311 75.0836 111.311 75.0836V80.0528V80.0528C111.311 80.4264 111.388 80.7969 111.538 81.1432C111.687 81.4896 111.907 81.8058 112.186 82.0732C112.465 82.3405 112.797 82.5536 113.165 82.6994C113.532 82.8451 113.926 82.9204 114.325 82.9203H114.325H119.509C119.509 82.9203 119.509 82.9203 119.509 82.9203C120.033 82.9202 120.553 83.0191 121.038 83.2118C121.523 83.4045 121.966 83.6874 122.339 84.0455C122.713 84.4037 123.01 84.83 123.214 85.3008C123.417 85.7715 123.522 86.2769 123.522 86.7879L103.743 71.2144ZM103.743 71.2144C102.685 71.2147 101.666 71.6176 100.912 72.3407C100.157 73.0645 99.7294 74.0506 99.7295 75.0835C99.7295 75.0835 99.7295 75.0835 99.7295 75.0835M103.743 71.2144L99.7295 75.0835M123.522 90.1964C123.522 90.7073 123.417 91.2127 123.214 91.6835C123.01 92.1543 122.713 92.5806 122.339 92.9388C121.966 93.2969 121.523 93.5798 121.038 93.7725C120.553 93.9652 120.033 94.064 119.509 94.064L123.522 90.1964ZM123.522 90.1964C123.522 90.1964 123.522 90.1964 123.522 90.1963M123.522 90.1964V90.1963M123.522 90.1963V86.7879V90.1963ZM114.325 94.064H119.509H114.325ZM91.53 94.064C91.5299 94.064 91.5299 94.064 91.5299 94.064C91.0057 94.064 90.4862 93.9652 90.0008 93.7725C89.5154 93.5798 89.0731 93.2968 88.6995 92.9388C88.3259 92.5806 88.0283 92.1543 87.8249 91.6835C87.6215 91.2127 87.5165 90.7073 87.5166 90.1964L91.53 94.064ZM91.53 94.064H96.716H91.53ZM87.5166 86.7879C87.5166 86.7879 87.5166 86.7879 87.5166 86.7879C87.5165 86.2769 87.6215 85.7715 87.8249 85.3008C88.0283 84.83 88.3259 84.4036 88.6995 84.0455C89.0731 83.6874 89.5154 83.4045 90.0009 83.2118C90.4862 83.0191 91.0057 82.9202 91.5299 82.9203L87.5166 86.7879ZM87.5166 86.7879V90.1963V86.7879ZM96.7162 82.9203H91.53H96.7162ZM96.7162 82.9203C96.7162 82.9203 96.7162 82.9203 96.7162 82.9203M96.7162 82.9203H96.7162M96.7162 82.9203C97.522 82.9202 98.2907 82.6131 98.8543 82.0729C99.4172 81.5333 99.7294 80.8062 99.7295 80.0528L96.7162 82.9203ZM99.7295 75.0835V80.0527V75.0835ZM118.246 68.5014V64.3723H132.657V112.613H118.246V108.485V107.188L117.375 108.149C114.094 111.771 109.203 113.992 102.438 113.992C89.2743 113.992 78.3813 102.915 78.3813 88.4936C78.3813 74.0722 89.2744 62.9932 102.438 62.9932C109.203 62.9932 114.092 65.2147 117.375 68.8372L118.246 69.7978V68.5014Z" stroke="black" stroke-opacity="0.63"/>
</svg>
