<svg width="99" height="41" viewBox="0 0 99 41" fill="none" xmlns="http://www.w3.org/2000/svg">
<path d="M11.3228 27.216H17.0151C16.2541 29.245 14.3972 30.4866 11.5662 30.4866C7.42709 30.4866 4.87007 27.8521 4.87007 24.2476C4.87007 20.5221 7.54876 17.8872 11.1402 17.8872C13.5447 17.8872 15.4622 18.9773 16.3453 20.3707L20.4847 18.0083C18.689 15.161 15.2492 13.1621 11.1707 13.1621C4.90084 13.1621 0 18.0683 0 24.2169C0 30.3049 4.80915 35.2115 11.5051 35.2115C17.4712 35.2115 22.0061 31.2744 22.0061 24.7924V22.9753H11.3228V27.216Z" fill="white"/>
<path d="M11.1707 13.6621C14.8726 13.6621 18.0027 15.3765 19.7695 17.8408L16.4903 19.7123C15.4173 18.3527 13.4686 17.3872 11.1402 17.3872C7.27018 17.3872 4.37007 20.2484 4.37007 24.2476C4.37007 26.1717 5.05499 27.8667 6.31989 29.0797C7.58396 30.2919 9.38897 30.9866 11.5662 30.9866C14.5612 30.9866 16.6347 29.6543 17.4832 27.3915L17.7366 26.716H17.0151H11.8228V23.4753H21.5061V24.7924C21.5061 27.9114 20.4182 30.3805 18.6476 32.0711C16.8736 33.7648 14.378 34.7115 11.5051 34.7115C5.07313 34.7115 0.5 30.0167 0.5 24.2169C0.5 18.3477 5.17372 13.6621 11.1707 13.6621Z" stroke="black" stroke-opacity="0.63"/>
<path d="M59.0665 19.2197C56.9055 19.2197 55.5051 20.0073 54.6529 21.219C53.8011 19.9466 52.4613 19.2197 50.6661 19.2197C48.6265 19.2197 47.2876 20.0073 46.5874 21.037V19.644H42.0216V34.7879H46.5874V26.2471C46.5874 24.4597 47.4396 23.3999 48.9617 23.3999C50.4227 23.3999 51.1529 24.3691 51.1529 25.8831V34.7879H55.7186V26.2471C55.7186 24.4597 56.5707 23.3999 58.0928 23.3999C59.5539 23.3999 60.2839 24.3691 60.2839 25.8831V34.7879H64.8497V25.4894C64.8495 21.7033 62.566 19.2197 59.0665 19.2197Z" fill="white"/>
<path d="M54.2374 21.4971L54.6427 22.1026L55.0618 21.5066C55.807 20.4471 57.0435 19.7197 59.0665 19.7197C60.6923 19.7197 61.9991 20.2932 62.9027 21.2736C63.8099 22.2581 64.3496 23.6961 64.3497 25.4894V34.2879H60.7839V25.8831C60.7839 25.0533 60.5844 24.3021 60.118 23.7508C59.6404 23.1864 58.9412 22.8999 58.0928 22.8999C57.2067 22.8999 56.462 23.2141 55.9494 23.8349C55.4481 24.4418 55.2186 25.2814 55.2186 26.2471V34.2879H51.6529V25.8831C51.6529 25.0533 51.4534 24.3021 50.9869 23.7508C50.5093 23.1864 49.81 22.8999 48.9617 22.8999C48.0755 22.8999 47.3309 23.2141 46.8182 23.8349C46.317 24.4418 46.0874 25.2814 46.0874 26.2471V34.2879H42.5216V20.144H46.0874V21.037V22.6614L47.0009 21.3181C47.5922 20.4485 48.7619 19.7197 50.6661 19.7197C52.3079 19.7197 53.4857 20.3742 54.2374 21.4971Z" stroke="black" stroke-opacity="0.63"/>
<path d="M71.8299 19.644H67.2643V34.7882H71.8299V19.644Z" fill="white"/>
<path d="M67.7643 34.2882V20.144H71.3299V34.2882H67.7643Z" stroke="black" stroke-opacity="0.63"/>
<path d="M75.354 19.644H73.3149V24.0052H75.354V34.788H79.9197V24.0052H82.7506V19.644H79.9197C79.9197 17.8874 81.0457 17.3723 82.7506 17.5237V13.162C77.6977 12.8593 75.354 15.4033 75.354 19.644Z" fill="white"/>
<path d="M75.354 20.144H75.854V19.644C75.854 17.6109 76.4146 16.0693 77.4973 15.0659C78.5102 14.1273 80.0573 13.5882 82.2506 13.6412V16.9988C81.5627 16.9947 80.9242 17.1155 80.4186 17.4522C79.7449 17.9009 79.4197 18.6528 79.4197 19.644V20.144H79.9197H82.2506V23.5052H79.9197H79.4197V24.0052V34.288H75.854V24.0052V23.5052H75.354H73.8149V20.144H75.354Z" stroke="black" stroke-opacity="0.63"/>
<path d="M94.0781 19.644L91.2169 28.9124L87.8388 19.644H82.8164L88.8735 34.0914C88.2039 35.9393 87.1996 36.6053 85.0688 36.6053V40.8459C89.3299 41.0582 92.0391 39.1502 93.7436 34.334L98.9482 19.6445L94.0781 19.644Z" fill="white"/>
<path d="M98.2406 20.1444L93.2723 34.1671L93.2722 34.1672C92.4391 36.5213 91.382 38.1015 90.0676 39.0736C88.8637 39.9641 87.3944 40.3809 85.5688 40.3611V37.0924C86.4517 37.0449 87.1874 36.8601 87.7949 36.4584C88.5198 35.979 88.9892 35.2398 89.3436 34.2618L89.4101 34.0782L89.3346 33.8981L83.5682 20.144H87.4888L90.7471 29.0836L91.2561 30.4802L91.6946 29.0598L94.4471 20.1441L98.2406 20.1444Z" stroke="black" stroke-opacity="0.63"/>
<path d="M69.5469 17.7924C70.9707 17.7924 72.125 16.6438 72.125 15.227C72.125 13.8102 70.9707 12.6616 69.5469 12.6616C68.1231 12.6616 66.9689 13.8102 66.9689 15.227C66.9689 16.6438 68.1231 17.7924 69.5469 17.7924Z" fill="white"/>
<path d="M71.625 15.227C71.625 16.3654 70.6969 17.2924 69.5469 17.2924C68.3969 17.2924 67.4689 16.3654 67.4689 15.227C67.4689 14.0886 68.3969 13.1616 69.5469 13.1616C70.6969 13.1616 71.625 14.0886 71.625 15.227Z" stroke="black" stroke-opacity="0.63"/>
<path d="M63.185 11.4613C64.6088 11.4613 65.763 10.3128 65.763 8.89595C65.763 7.47913 64.6088 6.33057 63.185 6.33057C61.7612 6.33057 60.6069 7.47913 60.6069 8.89595C60.6069 10.3128 61.7612 11.4613 63.185 11.4613Z" fill="white"/>
<path d="M65.263 8.89595C65.263 10.0343 64.335 10.9613 63.185 10.9613C62.035 10.9613 61.1069 10.0343 61.1069 8.89595C61.1069 7.75759 62.035 6.83057 63.185 6.83057C64.335 6.83057 65.263 7.75759 65.263 8.89595Z" stroke="black" stroke-opacity="0.63"/>
<path d="M69.5469 5.13077C70.9707 5.13077 72.125 3.98221 72.125 2.56538C72.125 1.14856 70.9707 0 69.5469 0C68.1231 0 66.9689 1.14856 66.9689 2.56538C66.9689 3.98221 68.1231 5.13077 69.5469 5.13077Z" fill="white"/>
<path d="M71.625 2.56538C71.625 3.70374 70.6969 4.63077 69.5469 4.63077C68.3969 4.63077 67.4689 3.70374 67.4689 2.56538C67.4689 1.42702 68.3969 0.5 69.5469 0.5C70.6969 0.5 71.625 1.42702 71.625 2.56538Z" stroke="black" stroke-opacity="0.63"/>
<path d="M75.909 11.4613C77.3328 11.4613 78.487 10.3128 78.487 8.89595C78.487 7.47913 77.3328 6.33057 75.909 6.33057C74.4852 6.33057 73.3309 7.47913 73.3309 8.89595C73.3309 10.3128 74.4852 11.4613 75.909 11.4613Z" fill="white"/>
<path d="M77.987 8.89595C77.987 10.0343 77.059 10.9613 75.909 10.9613C74.759 10.9613 73.8309 10.0343 73.8309 8.89595C73.8309 7.75759 74.759 6.83057 75.909 6.83057C77.059 6.83057 77.987 7.75759 77.987 8.89595Z" stroke="black" stroke-opacity="0.63"/>
<path d="M34.8824 19.6439V21.0676C33.8774 19.9163 32.3866 19.2197 30.3475 19.2197C26.3596 19.2197 23.0725 22.7027 23.0725 27.2162C23.0725 31.7297 26.3596 35.2119 30.3475 35.2119C32.3866 35.2119 33.878 34.5156 34.8824 33.3645V34.7879H39.4482V19.6439H34.8824ZM36.4456 27.7399C36.4456 27.8759 36.4187 28.0106 36.3664 28.1362C36.3141 28.2619 36.2374 28.3761 36.1408 28.4723C36.0441 28.5684 35.9294 28.6447 35.8031 28.6968C35.6768 28.7488 35.5415 28.7756 35.4048 28.7756H33.8689C33.5929 28.7756 33.3282 28.8847 33.133 29.079C32.9378 29.2732 32.8282 29.5366 32.8281 29.8113V31.34C32.8281 31.6147 32.7184 31.8781 32.5232 32.0723C32.3281 32.2666 32.0633 32.3757 31.7873 32.3757H30.734C30.458 32.3757 30.1933 32.2666 29.9981 32.0723C29.8029 31.8781 29.6932 31.6147 29.6932 31.34V29.8113C29.6931 29.5366 29.5834 29.2733 29.3882 29.0791C29.193 28.8849 28.9284 28.7757 28.6524 28.7756H27.1159C26.9792 28.7756 26.8439 28.7488 26.7176 28.6968C26.5913 28.6447 26.4766 28.5684 26.3799 28.4723C26.2833 28.3761 26.2066 28.2619 26.1543 28.1362C26.102 28.0106 26.0751 27.8759 26.0751 27.7399V26.6916C26.0751 26.5556 26.102 26.4209 26.1543 26.2952C26.2066 26.1695 26.2833 26.0554 26.3799 25.9592C26.4766 25.863 26.5913 25.7867 26.7176 25.7347C26.8439 25.6826 26.9792 25.6559 27.1159 25.6559H28.6524C28.9284 25.6558 29.1931 25.5467 29.3883 25.3525C29.5835 25.1583 29.6932 24.8949 29.6932 24.6202V23.0919C29.6932 22.8171 29.8028 22.5536 29.998 22.3593C30.1931 22.165 30.4579 22.0558 30.734 22.0557H31.7873C31.924 22.0557 32.0594 22.0826 32.1857 22.1346C32.312 22.1867 32.4267 22.2631 32.5234 22.3593C32.62 22.4555 32.6967 22.5697 32.749 22.6954C32.8013 22.8211 32.8282 22.9558 32.8281 23.0919V24.6202C32.8281 24.7562 32.855 24.8909 32.9073 25.0166C32.9596 25.1422 33.0363 25.2564 33.1329 25.3526C33.2296 25.4488 33.3443 25.525 33.4706 25.5771C33.5969 25.6291 33.7322 25.6559 33.8689 25.6559H35.4048C35.5415 25.6559 35.6768 25.6826 35.8031 25.7347C35.9294 25.7867 36.0441 25.863 36.1408 25.9592C36.2374 26.0554 36.3141 26.1695 36.3664 26.2952C36.4187 26.4209 36.4456 26.5556 36.4456 26.6916V27.7399Z" fill="white"/>
<path d="M33.3281 31.34V31.3401C33.3281 31.7482 33.1651 32.139 32.8759 32.4268C32.5868 32.7145 32.1952 32.8757 31.7874 32.8757H31.7873H30.734H30.7339C30.3261 32.8757 29.9345 32.7145 29.6454 32.4268C29.3562 32.139 29.1933 31.7482 29.1932 31.3401V31.34V29.8115C29.1931 29.6702 29.1367 29.5342 29.0355 29.4335C28.9343 29.3327 28.7964 29.2756 28.6522 29.2756H27.116C27.116 29.2756 27.1159 29.2756 27.1159 29.2756C26.9139 29.2756 26.7138 29.236 26.5271 29.1591C26.3403 29.0821 26.1704 28.9692 26.0272 28.8267C25.884 28.6842 25.7703 28.5149 25.6927 28.3284C25.6151 28.1419 25.5751 27.9419 25.5751 27.7399L33.3281 31.34ZM33.3281 31.34V29.8113C33.3281 29.8113 33.3281 29.8113 33.3281 29.8113C33.3282 29.67 33.3846 29.534 33.4857 29.4334C33.5869 29.3327 33.7247 29.2756 33.8689 29.2756C33.8689 29.2756 33.869 29.2756 33.869 29.2756M33.3281 31.34L33.869 29.2756M30.7338 21.5557H30.734H31.7873H31.7874C31.9894 21.5558 32.1895 21.5954 32.3763 21.6724C32.5631 21.7494 32.733 21.8624 32.8761 22.0049C33.0193 22.1475 33.133 22.3168 33.2106 22.5034C33.2882 22.6899 33.3282 22.8899 33.3281 23.0919C33.3281 23.0919 33.3281 23.092 33.3281 23.092V24.6202V24.6203C33.3281 24.6903 33.342 24.7597 33.3689 24.8244C33.3959 24.8892 33.4355 24.9483 33.4856 24.9982C33.5357 25.048 33.5953 25.0877 33.6611 25.1148C33.7269 25.1419 33.7975 25.1559 33.8688 25.1559H33.8689H35.4047C35.4047 25.1559 35.4048 25.1559 35.4048 25.1559C35.6068 25.1559 35.8068 25.1954 35.9936 25.2724C36.1804 25.3494 36.3503 25.4623 36.4935 25.6048C36.6367 25.7473 36.7504 25.9166 36.828 26.1031C36.9056 26.2896 36.9456 26.4896 36.9456 26.6916L30.7338 21.5557ZM30.7338 21.5557C30.3259 21.5558 29.9343 21.7172 29.6452 22.005C29.356 22.2929 29.1932 22.6838 29.1932 23.0919C29.1932 23.0919 29.1932 23.0919 29.1932 23.092M30.7338 21.5557L29.1932 23.092M36.9456 27.7399C36.9456 27.9419 36.9056 28.1419 36.828 28.3284C36.7504 28.5149 36.6367 28.6842 36.4935 28.8267C36.3503 28.9692 36.1804 29.0821 35.9936 29.1591C35.8068 29.236 35.6068 29.2756 35.4048 29.2756L36.9456 27.7399ZM36.9456 27.7399C36.9456 27.7399 36.9456 27.7398 36.9456 27.7398M36.9456 27.7399V27.7398M36.9456 27.7398V26.6917V27.7398ZM33.869 29.2756H35.4047H33.869ZM25.5751 26.6916C25.5751 26.6916 25.5751 26.6916 25.5751 26.6916C25.5751 26.4896 25.6151 26.2896 25.6927 26.1031C25.7703 25.9166 25.884 25.7472 26.0272 25.6048C26.1704 25.4623 26.3403 25.3494 26.5271 25.2724C26.7138 25.1954 26.9139 25.1559 27.1159 25.1559L25.5751 26.6916ZM25.5751 26.6916V27.7398V26.6916ZM28.6523 25.1559C28.6523 25.1559 28.6524 25.1559 28.6524 25.1559C28.7966 25.1558 28.9344 25.0988 29.0356 24.9981C29.1368 24.8974 29.1932 24.7614 29.1932 24.6202L28.6523 25.1559ZM28.6523 25.1559H27.116H28.6523ZM29.1932 23.092V24.6201V23.092ZM35.3824 21.0676V20.1439H38.9482V34.2879H35.3824V33.3645V32.0309L34.5056 33.0358C33.609 34.0634 32.2627 34.7119 30.3475 34.7119C26.6741 34.7119 23.5725 31.4935 23.5725 27.2162C23.5725 22.9388 26.6741 19.7197 30.3475 19.7197C32.2625 19.7197 33.6083 20.3684 34.5057 21.3964L35.3824 22.4007V21.0676Z" stroke="black" stroke-opacity="0.63"/>
</svg>
