<svg id="Group_1" data-name="Group 1" xmlns="http://www.w3.org/2000/svg" width="73" height="73" viewBox="0 0 73 73">
  <path id="Rectangle_1" data-name="Rectangle 1" d="M23.5-.5h25a23.98,23.98,0,0,1,24,24v25a23.98,23.98,0,0,1-24,24h-25a23.98,23.98,0,0,1-24-24v-25a23.98,23.98,0,0,1,24-24Zm25,72a22.98,22.98,0,0,0,23-23v-25a22.98,22.98,0,0,0-23-23h-25a22.98,22.98,0,0,0-23,23v25a22.98,22.98,0,0,0,23,23Z" transform="translate(0.5 0.5)" fill="#fff"/>
  <path id="Path_1" data-name="Path 1" d="M8.634,32.239l0,0A2.757,2.757,0,0,1,7.5,30.084a2.789,2.789,0,0,1,1.134-2.167L34.126,7.451a4.761,4.761,0,0,1,5.705,0h0l0,0L65.328,27.917l0,0a2.757,2.757,0,0,1,1.132,2.154,2.789,2.789,0,0,1-1.134,2.167l-4.236,3.4,0,0a4.789,4.789,0,0,1-5.726,0L37.294,21.133l-.313-.251-.313.251L18.6,35.64l0,0a4.789,4.789,0,0,1-5.726,0Z" transform="translate(0 1)" fill="#fff"/>
  <path id="Path_1_-_Outline" data-name="Path 1 - Outline" d="M58.235,37.091a5.083,5.083,0,0,1-3.184-1.061L36.981,21.523,18.912,36.03a5.026,5.026,0,0,1-3.17,1.061,5.083,5.083,0,0,1-3.184-1.061l-4.236-3.4a3.123,3.123,0,0,1,0-5.1L33.813,7.061A5.079,5.079,0,0,1,36.995,6a4.964,4.964,0,0,1,3.154,1.061h0l25.49,20.465a3.123,3.123,0,0,1,0,5.1L61.4,36.03A5.026,5.026,0,0,1,58.235,37.091ZM36.981,20.24l.626.5L55.677,35.25a4.082,4.082,0,0,0,2.558.841,4.028,4.028,0,0,0,2.536-.834l.008-.007,4.236-3.4a2.3,2.3,0,0,0,.948-1.777,2.269,2.269,0,0,0-.939-1.759l-.008-.006-25.5-20.47A3.967,3.967,0,0,0,36.995,7a4.078,4.078,0,0,0-2.555.841L8.948,28.307A2.3,2.3,0,0,0,8,30.084a2.27,2.27,0,0,0,.943,1.762l0,0,4.236,3.4a4.082,4.082,0,0,0,2.558.841,4.025,4.025,0,0,0,2.54-.837l0,0Z" transform="translate(0 1)" fill="#14084b"/>
  <path id="Path_2" data-name="Path 2" d="M8.634,32.239l0,0A2.757,2.757,0,0,1,7.5,30.084a2.789,2.789,0,0,1,1.134-2.167L34.126,7.451a4.761,4.761,0,0,1,5.705,0h0l0,0L65.328,27.917l0,0a2.757,2.757,0,0,1,1.132,2.154,2.789,2.789,0,0,1-1.134,2.167l-4.236,3.4,0,0a4.789,4.789,0,0,1-5.726,0L37.294,21.133l-.313-.251-.313.251L18.6,35.64l0,0a4.789,4.789,0,0,1-5.726,0Z" transform="translate(0 26)" fill="#fff"/>
  <path id="Path_2_-_Outline" data-name="Path 2 - Outline" d="M58.235,37.091a5.083,5.083,0,0,1-3.184-1.061L36.981,21.523,18.912,36.03a5.026,5.026,0,0,1-3.17,1.061,5.083,5.083,0,0,1-3.184-1.061l-4.236-3.4a3.123,3.123,0,0,1,0-5.1L33.813,7.061A5.079,5.079,0,0,1,36.995,6a4.964,4.964,0,0,1,3.154,1.061h0l25.49,20.465a3.123,3.123,0,0,1,0,5.1L61.4,36.03A5.026,5.026,0,0,1,58.235,37.091ZM36.981,20.24l.626.5L55.677,35.25a4.082,4.082,0,0,0,2.558.841,4.028,4.028,0,0,0,2.536-.834l.008-.007,4.236-3.4a2.3,2.3,0,0,0,.948-1.777,2.269,2.269,0,0,0-.939-1.759l-.008-.006-25.5-20.47A3.967,3.967,0,0,0,36.995,7a4.078,4.078,0,0,0-2.555.841L8.948,28.307A2.3,2.3,0,0,0,8,30.084a2.27,2.27,0,0,0,.943,1.762l0,0,4.236,3.4a4.082,4.082,0,0,0,2.558.841,4.025,4.025,0,0,0,2.54-.837l0,0Z" transform="translate(0 26)" fill="#14084b"/>
</svg>
