<svg width="73" height="73" viewBox="0 0 73 73" fill="none" xmlns="http://www.w3.org/2000/svg">
<rect x="0.5" y="0.5" width="72" height="72" rx="23.5" stroke="white"/>
<path d="M65.3655 61.1331L65.3675 61.1314C66.1412 60.5169 66.5 59.7341 66.5 58.9778C66.5 58.2212 66.1408 57.4337 65.3655 56.8113L39.8735 36.3447C38.2945 35.0771 35.707 35.0774 34.1285 36.3582L34.1265 36.3598L8.63449 56.8263L8.63246 56.8279C7.85879 57.4425 7.5 58.2252 7.5 58.9816C7.5 59.7379 7.85891 60.5251 8.63365 61.1474L65.3655 61.1331ZM65.3655 61.1331L61.1293 64.5341C59.5493 65.8027 56.9618 65.8006 55.4032 64.5357L55.4007 64.5338L37.3126 50.0417L36.9997 49.791L36.687 50.042L18.6176 64.5492C17.0375 65.8177 14.4501 65.8156 12.8915 64.5508L12.8886 64.5485L8.63449 61.1481L65.3655 61.1331ZM8.63449 32.2391L8.63245 32.2375C7.85879 31.623 7.5 30.8402 7.5 30.0839C7.5 29.3273 7.85917 28.5398 8.63449 27.9174L34.1265 7.45084C35.7076 6.18145 38.2938 6.18576 39.8319 7.44752L39.8319 7.44754L39.836 7.45084L65.328 27.9174L65.3301 27.919C66.1037 28.5335 66.4625 29.3163 66.4625 30.0726C66.4625 30.8293 66.1033 31.6167 65.328 32.2392L61.0918 35.6402L61.0898 35.6419C59.5312 36.9067 56.9437 36.9088 55.3636 35.6402L37.2943 21.1331L36.9813 20.8817L36.6682 21.1331L18.5989 35.6402L18.5968 35.6419C17.0382 36.9067 14.4507 36.9088 12.8707 35.6402L8.63449 32.2391Z" fill="white" stroke="black"/>
</svg>
