<svg width="53" height="41" viewBox="0 0 53 41" fill="none" xmlns="http://www.w3.org/2000/svg">
<path d="M52.2875 33.8875C47.9223 37.1147 43.6973 39.109 39.5287 40.444C38.6634 39.2046 37.8722 37.9063 37.1667 36.5552C38.5136 36.0181 39.797 35.3898 41.0363 34.6499C41.4641 34.3998 41.4643 33.8189 41.0956 33.5389C40.8684 33.3626 40.6415 33.1806 40.4159 32.9997C40.3729 32.9652 40.3299 32.9307 40.287 32.8964C40.1009 32.7449 39.8273 32.6909 39.5842 32.8082C31.1482 36.7602 21.9215 36.7614 13.3792 32.8075C13.1346 32.6902 12.8595 32.746 12.6737 32.8998L12.6736 32.8997L12.6663 32.906C12.4677 33.077 12.2541 33.2418 12.0296 33.415C11.9758 33.4565 11.9215 33.4984 11.8666 33.541L11.8665 33.5409L11.8578 33.548C11.5084 33.8319 11.5148 34.4038 11.9381 34.6505L52.2875 33.8875ZM52.2875 33.8875C53.3408 22.4971 50.4332 12.6016 44.5589 3.80692C41.3186 2.30998 37.847 1.18926 34.2223 0.537147C33.7998 1.33133 33.3517 2.3021 33.0238 3.07748L32.8725 3.43528L32.4884 3.37709C28.4664 2.76775 24.4635 2.76797 20.521 3.37687L20.1318 3.43699L19.9822 3.07263C19.6591 2.28562 19.1912 1.3362 18.7613 0.538423C15.1357 1.19101 11.6639 2.30472 8.41623 3.81002C1.69112 14.0497 -0.177114 24.0317 0.703672 33.8878C5.06656 37.1132 9.28926 39.1071 13.4398 40.4421C14.3193 39.2031 15.1164 37.9065 15.8084 36.5583L52.2875 33.8875ZM12.4494 22.5427C12.4494 25.7463 14.7625 28.4652 17.7105 28.4652C20.7032 28.4652 22.9699 25.7453 22.9717 22.5464C23.0163 19.3632 20.7171 16.6201 17.7105 16.6201C14.7258 16.6201 12.4494 19.3416 12.4494 22.5427ZM30.0622 22.5427C30.0622 25.7463 32.3754 28.4652 35.3233 28.4652C38.3344 28.4652 40.5828 25.7439 40.5845 22.5463C40.629 19.3631 38.3299 16.6201 35.3233 16.6201C32.3295 16.6201 30.0622 19.3422 30.0622 22.5427Z" fill="white" stroke="black"/>
</svg>
