<svg width="46" height="39" viewBox="0 0 46 39" fill="none" xmlns="http://www.w3.org/2000/svg">
<path d="M40.9887 9.34282L40.7734 9.50354L40.7886 9.7718C40.8127 10.1972 40.8129 10.5992 40.8129 11.0166C40.8129 23.8135 31.4623 38.5 14.4607 38.5C9.93012 38.5 5.67428 37.2965 1.9618 35.1856C2.05639 35.1865 2.15048 35.1869 2.24391 35.1869C6.77767 35.1869 10.9523 33.5845 14.2785 30.8648L15.332 30.0035L13.9715 29.9778C10.3407 29.9094 7.224 27.5949 5.88793 24.2738C6.2273 24.3103 6.56827 24.3261 6.90624 24.3261C7.81942 24.3261 8.69026 24.2172 9.54004 23.9682L9.50035 22.9987C5.66664 22.2089 2.6724 18.7653 2.37012 14.5519C3.5116 15.0792 4.76642 15.3952 6.09159 15.4398L7.77165 15.4962L6.39557 14.5307C4.00926 12.8564 2.41978 9.99434 2.41978 6.7555C2.41978 5.31448 2.72387 3.94668 3.28809 2.70969C8.02318 8.42441 14.8988 12.1973 22.6135 12.5813L23.2581 12.6134L23.1282 11.9813C22.9831 11.2757 22.8892 10.5833 22.8892 9.84742C22.8892 4.67355 26.923 0.5 31.8384 0.5C34.4043 0.5 36.7136 1.62708 38.3449 3.47481L38.5362 3.69152L38.8195 3.63384C40.562 3.27902 42.2122 2.69508 43.7446 1.89439C42.9691 3.5174 41.7676 4.8641 40.2989 5.78644L40.6319 6.70535C42.0103 6.51878 43.3405 6.20115 44.613 5.75188C43.5627 7.11644 42.3438 8.33135 40.9887 9.34282Z" fill="white" stroke="black"/>
</svg>
